<svg height="512pt" viewBox="0 0 512 512" width="512pt" xmlns="http://www.w3.org/2000/svg" xmlns:xlink="http://www.w3.org/1999/xlink"><linearGradient id="a" gradientUnits="userSpaceOnUse" x1="0" x2="512" y1="256" y2="256"><stop offset="0" stop-color="#00f1ff"/><stop offset=".231" stop-color="#00d8ff"/><stop offset=".5138" stop-color="#00c0ff"/><stop offset=".7773" stop-color="#00b2ff"/><stop offset="1" stop-color="#00adff"/></linearGradient><path d="m512 256c0 141.386719-114.613281 256-256 256s-256-114.613281-256-256 114.613281-256 256-256 256 114.613281 256 256zm0 0" fill="url(#a)"/><g fill="#fff"><path d="m374.050781 248.164062h-4.539062v-25.382812c0-8.28125-6.714844-15-15-15-8.285157 0-15 6.71875-15 15v25.382812h-21.453125v-25.382812c0-8.28125-6.71875-15-15-15-8.285156 0-15 6.71875-15 15v25.382812h-5.191406c-8.285157 0-15 6.71875-15 15v25.402344c0 28.699219 20.0625 52.785156 46.894531 59.011719v62.132813c0 8.285156 6.714843 15 15 15 8.285156 0 15-6.714844 15-15v-62.800782c25.515625-7.136718 44.289062-30.582031 44.289062-58.34375v-25.402344c0-8.285156-6.714843-15-15-15zm-15 40.402344c0 16.867188-13.726562 30.59375-30.59375 30.59375-16.867187 0-30.59375-13.726562-30.59375-30.59375v-10.402344h61.1875zm0 0"/><path d="m277.003906 394.710938h-85.976562c-13.273438 0-24.078125-10.800782-24.078125-24.078126v-203.210937c0-13.277344 10.804687-24.082031 24.078125-24.082031h16.9375c8.28125 0 15-6.714844 15-15v-11.050782h35.132812v11.050782c0 8.285156 6.714844 15 15 15h16.933594c13.277344 0 24.078125 10.804687 24.078125 24.082031v7.164063c0 8.28125 6.714844 15 15 15s15-6.71875 15-15v-7.164063c0-29.820313-24.257813-54.082031-54.078125-54.082031h-1.933594v-1.746094c0-13.402344-10.90625-24.304688-24.308594-24.304688h-46.519531c-13.402343 0-24.304687 10.902344-24.304687 24.304688v1.746094h-1.9375c-29.816406 0-54.078125 24.261718-54.078125 54.082031v203.210937c0 29.816407 24.261719 54.078126 54.078125 54.078126h85.976562c8.285156 0 15-6.714844 15-15 0-8.285157-6.714844-15-15-15zm0 0"/></g></svg>