<?xml version="1.0" encoding="iso-8859-1"?>
<!-- Generator: Adobe Illustrator 19.0.0, SVG Export Plug-In . SVG Version: 6.00 Build 0)  -->
<svg version="1.1" id="Capa_1" xmlns="http://www.w3.org/2000/svg" xmlns:xlink="http://www.w3.org/1999/xlink" x="0px" y="0px"
	 viewBox="0 0 512 512" style="enable-background:new 0 0 512 512;" xml:space="preserve">
<path style="fill:#FF4343;" d="M512,256c0,141.385-114.615,256-256,256S0,397.385,0,256S114.615,0,256,0S512,114.615,512,256z"/>
<path style="fill:#7A8C98;" d="M410.079,181.249l-81.328-81.328c-3.905-3.905-3.905-10.237,0-14.142l62.85-62.85
	c3.905-3.905,10.237-3.905,14.142,0l81.328,81.328c3.905,3.905,3.905,10.237,0,14.142l-62.85,62.85
	C420.316,185.154,413.984,185.154,410.079,181.249z"/>
<path style="fill:#8D9CA8;" d="M410.079,181.249l-67.47-67.47c-3.905-3.905-3.905-10.237,0-14.142l62.85-62.85
	c3.905-3.905,10.237-3.905,14.142,0l67.47,67.47c3.905,3.905,3.905,10.237,0,14.142l-62.85,62.85
	C420.316,185.154,413.984,185.154,410.079,181.249z"/>
<path style="fill:#465A61;" d="M415.924,81.244l-54.523,54.523c-1.953,1.952-5.118,1.952-7.071,0l-15.257-15.257
	c-1.953-1.953-1.953-5.119,0-7.071l54.523-54.522c1.953-1.953,5.118-1.953,7.071,0l15.257,15.257
	C417.877,76.125,417.877,79.291,415.924,81.244z M455.19,113.438l-15.257-15.256c-1.953-1.953-5.118-1.953-7.071,0l-54.523,54.522
	c-1.953,1.953-1.953,5.119,0,7.071l15.257,15.256c1.953,1.953,5.118,1.953,7.071,0l54.523-54.522
	C457.143,118.557,457.143,115.391,455.19,113.438z"/>
<path style="fill:#C5D3DD;" d="M448.274,190.046l-48.762,48.762c-29.198,29.198-73.342,34.332-107.802,15.412l-7.686,7.686
	c-2.662,2.662-6.875,2.824-9.726,0.487l-2.079,2.079c-4.77,4.77-11.454,6.433-17.577,5.029l-16.496,16.496
	c-2.91,2.91-4.513,6.778-4.513,10.894s1.603,7.984,4.513,10.894l67.753,67.753c6.687,6.688,10.37,15.579,10.37,25.036
	c0,9.458-3.683,18.349-10.371,25.036c-6.687,6.687-15.578,10.37-25.036,10.37c-9.457,0-18.349-3.683-25.036-10.37L84.391,254.174
	c-2.91-2.91-6.779-4.513-10.894-4.513s-7.984,1.603-10.894,4.512c-2.91,2.91-4.513,6.779-4.513,10.894s1.603,7.984,4.512,10.894
	l64.674,64.673c6.687,6.687,10.37,15.579,10.37,25.036s-3.683,18.349-10.37,25.036l-49.269,49.269
	c-4.793-4.639-9.404-9.463-13.824-14.461l48.95-48.95c2.91-2.91,4.513-6.779,4.513-10.894c0-4.115-1.603-7.984-4.512-10.894
	L48.46,290.103c-6.687-6.688-10.37-15.579-10.37-25.036c0-9.458,3.683-18.349,10.371-25.036c6.687-6.687,15.578-10.37,25.036-10.37
	c9.457,0,18.349,3.683,25.036,10.371l171.435,171.435c2.91,2.91,6.779,4.513,10.894,4.513c4.115,0,7.984-1.603,10.894-4.512
	c2.91-2.91,4.513-6.779,4.513-10.894c0-4.115-1.603-7.984-4.513-10.894l-67.753-67.752c-13.805-13.805-13.805-36.267,0-50.072
	l16.496-16.496c-1.404-6.124,0.259-12.808,5.029-17.577l2.079-2.079c-2.336-2.852-2.174-7.065,0.487-9.727l7.686-7.686
	c-18.92-34.459-13.786-78.604,15.412-107.802l48.762-48.762c2.835-2.834,7.431-2.834,10.266,0l118.055,118.055
	C451.108,182.616,451.109,187.211,448.274,190.046z"/>
<path style="fill:#D9E7EC;" d="M448.274,190.046l-48.762,48.762c-13.61,13.61-30.469,21.986-48.079,25.14
	c-6.794-4.331-13.228-9.455-19.161-15.388c-43.939-43.939-43.939-115.178,0-159.117c4.369-4.369,9.012-8.296,13.867-11.797
	L448.273,179.78C451.108,182.616,451.109,187.212,448.274,190.046z"/>
<g>
</g>
<g>
</g>
<g>
</g>
<g>
</g>
<g>
</g>
<g>
</g>
<g>
</g>
<g>
</g>
<g>
</g>
<g>
</g>
<g>
</g>
<g>
</g>
<g>
</g>
<g>
</g>
<g>
</g>
</svg>
